<svg xmlns="http://www.w3.org/2000/svg" xmlns:xlink="http://www.w3.org/1999/xlink" version="1.1" x="0px" y="0px" width="1280px" height="54px" viewBox="0 0 1280 54" style="enable-background:new 0 0 1280 54;" xml:space="preserve"><script xmlns=""/>
<style type="text/css">
	.st0{display:none;fill-rule:evenodd;clip-rule:evenodd;fill:#050305;}
	.st1{fill-rule:evenodd;clip-rule:evenodd;fill:#211C6A;}
	.st2{fill:none;stroke:#FFFFFF;stroke-width:8;stroke-linecap:square;}
</style>
<g id="Layer_2">
	<rect x="0.2" y="0" class="st0" width="1279.8" height="54.1"/>
</g>
<g id="Layer_1">
	<path class="st1" d="M-34.9,0C125,0,125,52,284.8,52S444.7,0,604.6,0s159.9,52,319.8,52c164.9,0,186.6-49.4,333.2-52"/>
	<path class="st2" d="M-26,4c159.9,0,159.9,46,319.8,46S453.6,4,613.5,4s159.9,46,319.8,46c160.2,0,160.2-46,319.8-46"/>
	<path class="st1" d="M1257.4,0c159.9,0,159.9,54.1,319.8,54.1c159.9,0,159.9-54.1,319.8-54.1s159.9,54.1,319.8,54.1   S2376.6,0,2536.4,0"/>
	<path class="st2" d="M1260.9,4c159.9,0,159.6,45.8,319.5,45.8c159.9,0,159.9-46,319.8-46s159.9,46,319.8,46s159.9-46,319.8-46"/>
</g>
<script xmlns=""/></svg>